<svg width="175" height="18" viewBox="0 0 175 18" fill="none" xmlns="http://www.w3.org/2000/svg">
<path d="M12.4964 5.32599C12.0938 2.41761 9.85653 0.730113 6.95455 0.730113C3.5348 0.730113 0.958807 3.22301 0.958807 7.45455C0.958807 11.6797 3.50284 14.179 6.95455 14.179C10.0675 14.179 12.1321 12.1655 12.4964 9.66619L10.1058 9.65341C9.8054 11.1875 8.55256 12.0504 6.98651 12.0504C4.86435 12.0504 3.34304 10.4588 3.34304 7.45455C3.34304 4.50142 4.85156 2.85866 6.9929 2.85866C8.58452 2.85866 9.83097 3.75994 10.1058 5.32599H12.4964ZM17.3912 14.1982C18.9316 14.1982 19.8521 13.4759 20.274 12.6513H20.3507V14H22.5751V7.42898C22.5751 4.83381 20.4593 4.05398 18.5865 4.05398C16.5218 4.05398 14.9366 4.97443 14.4252 6.7642L16.5858 7.07102C16.8159 6.39986 17.4679 5.82457 18.5993 5.82457C19.6731 5.82457 20.2612 6.37429 20.2612 7.33949V7.37784C20.2612 8.04261 19.5645 8.07457 17.8322 8.25994C15.9274 8.46449 14.1056 9.03338 14.1056 11.245C14.1056 13.1754 15.5183 14.1982 17.3912 14.1982ZM17.992 12.4979C17.0268 12.4979 16.3365 12.0568 16.3365 11.2067C16.3365 10.3182 17.1099 9.94744 18.1454 9.80043C18.7527 9.71733 19.9672 9.56392 20.2676 9.32102V10.478C20.2676 11.571 19.3855 12.4979 17.992 12.4979ZM24.9018 14H27.2157V8.22798C27.2157 6.98153 28.1554 6.09943 29.4274 6.09943C29.8173 6.09943 30.3031 6.16974 30.5012 6.23366V4.10511C30.2903 4.06676 29.926 4.04119 29.6703 4.04119C28.5453 4.04119 27.6056 4.6804 27.2477 5.81818H27.1454V4.18182H24.9018V14ZM32.0385 14H34.3525V8.22798C34.3525 6.98153 35.2921 6.09943 36.5641 6.09943C36.954 6.09943 37.4398 6.16974 37.638 6.23366V4.10511C37.427 4.06676 37.0627 4.04119 36.807 4.04119C35.682 4.04119 34.7424 4.6804 34.3844 5.81818H34.2821V4.18182H32.0385V14ZM43.1175 14.1918C45.4059 14.1918 46.9783 13.0732 47.3874 11.3665L45.2269 11.1236C44.9137 11.9545 44.1467 12.3892 43.1495 12.3892C41.6538 12.3892 40.663 11.4048 40.6438 9.72372H47.4833V9.0142C47.4833 5.56889 45.4123 4.05398 42.9961 4.05398C40.1836 4.05398 38.3491 6.11861 38.3491 9.14844C38.3491 12.2294 40.158 14.1918 43.1175 14.1918ZM40.6502 8.16406C40.7205 6.91122 41.6474 5.85653 43.0281 5.85653C44.3576 5.85653 45.2525 6.82812 45.2653 8.16406H40.6502ZM53.7108 17.8864C56.3635 17.8864 58.3194 16.6719 58.3194 14.1598V4.18182H56.0375V5.8054H55.9096C55.5581 5.09588 54.823 4.05398 53.0907 4.05398C50.8216 4.05398 49.0382 5.83097 49.0382 9.05895C49.0382 12.2614 50.8216 13.8594 53.0843 13.8594C54.7654 13.8594 55.5517 12.9581 55.9096 12.2358H56.0247V14.0959C56.0247 15.5405 55.0659 16.1349 53.7491 16.1349C52.3556 16.1349 51.742 15.4766 51.4608 14.9013L49.377 15.4062C49.7988 16.7805 51.2115 17.8864 53.7108 17.8864ZM53.7299 12.044C52.2022 12.044 51.3968 10.8551 51.3968 9.04616C51.3968 7.26278 52.1895 5.95241 53.7299 5.95241C55.2193 5.95241 56.0375 7.18608 56.0375 9.04616C56.0375 10.919 55.2065 12.044 53.7299 12.044ZM63.5162 14.1982C65.0566 14.1982 65.9771 13.4759 66.399 12.6513H66.4757V14H68.7001V7.42898C68.7001 4.83381 66.5843 4.05398 64.7115 4.05398C62.6468 4.05398 61.0616 4.97443 60.5502 6.7642L62.7108 7.07102C62.9409 6.39986 63.5929 5.82457 64.7243 5.82457C65.7981 5.82457 66.3862 6.37429 66.3862 7.33949V7.37784C66.3862 8.04261 65.6895 8.07457 63.9572 8.25994C62.0524 8.46449 60.2306 9.03338 60.2306 11.245C60.2306 13.1754 61.6433 14.1982 63.5162 14.1982ZM64.117 12.4979C63.1518 12.4979 62.4615 12.0568 62.4615 11.2067C62.4615 10.3182 63.2349 9.94744 64.2704 9.80043C64.8777 9.71733 66.0922 9.56392 66.3926 9.32102V10.478C66.3926 11.571 65.5105 12.4979 64.117 12.4979ZM71.0268 14H73.3407V8.22798C73.3407 6.98153 74.2804 6.09943 75.5524 6.09943C75.9423 6.09943 76.4281 6.16974 76.6262 6.23366V4.10511C76.4153 4.06676 76.051 4.04119 75.7953 4.04119C74.6703 4.04119 73.7306 4.6804 73.3727 5.81818H73.2704V4.18182H71.0268V14ZM82.6284 14H84.9423V8.02983C84.9423 6.82173 85.7477 6.00355 86.7449 6.00355C87.7228 6.00355 88.394 6.66193 88.394 7.67188V14H90.6632V7.87642C90.6632 6.7706 91.3216 6.00355 92.4402 6.00355C93.3734 6.00355 94.1149 6.55327 94.1149 7.76776V14H96.4352V7.4098C96.4352 5.21733 95.1696 4.05398 93.367 4.05398C91.9416 4.05398 90.8549 4.7571 90.4203 5.85014H90.318C89.9409 4.73793 88.9885 4.05398 87.6653 4.05398C86.3485 4.05398 85.3642 4.73153 84.9551 5.85014H84.84V4.18182H82.6284V14ZM101.608 14.1982C103.148 14.1982 104.069 13.4759 104.491 12.6513H104.567V14H106.792V7.42898C106.792 4.83381 104.676 4.05398 102.803 4.05398C100.739 4.05398 99.1534 4.97443 98.642 6.7642L100.803 7.07102C101.033 6.39986 101.685 5.82457 102.816 5.82457C103.89 5.82457 104.478 6.37429 104.478 7.33949V7.37784C104.478 8.04261 103.781 8.07457 102.049 8.25994C100.144 8.46449 98.3224 9.03338 98.3224 11.245C98.3224 13.1754 99.7351 14.1982 101.608 14.1982ZM102.209 12.4979C101.244 12.4979 100.553 12.0568 100.553 11.2067C100.553 10.3182 101.327 9.94744 102.362 9.80043C102.969 9.71733 104.184 9.56392 104.484 9.32102V10.478C104.484 11.571 103.602 12.4979 102.209 12.4979ZM109.119 14H111.433V4.18182H109.119V14ZM110.282 2.78835C111.017 2.78835 111.618 2.22585 111.618 1.53551C111.618 0.838778 111.017 0.276278 110.282 0.276278C109.54 0.276278 108.94 0.838778 108.94 1.53551C108.94 2.22585 109.54 2.78835 110.282 2.78835ZM121.572 6.77699C121.252 5.11506 119.923 4.05398 117.622 4.05398C115.257 4.05398 113.646 5.21733 113.652 7.03267C113.646 8.46449 114.528 9.41051 116.414 9.80043L118.088 10.152C118.99 10.3501 119.411 10.7145 119.411 11.2706C119.411 11.9418 118.683 12.4467 117.583 12.4467C116.522 12.4467 115.832 11.9865 115.634 11.1044L113.377 11.3217C113.665 13.1243 115.18 14.1918 117.59 14.1918C120.044 14.1918 121.776 12.9197 121.783 11.0597C121.776 9.6598 120.875 8.80327 119.021 8.40057L117.347 8.04261C116.35 7.81889 115.953 7.47372 115.96 6.90483C115.953 6.24006 116.688 5.77983 117.654 5.77983C118.721 5.77983 119.284 6.36151 119.463 7.0071L121.572 6.77699ZM128.156 17.6818H130.47V12.4531H130.566C130.93 13.169 131.691 14.1726 133.378 14.1726C135.692 14.1726 137.424 12.3381 137.424 9.10369C137.424 5.83097 135.641 4.05398 133.372 4.05398C131.639 4.05398 130.917 5.09588 130.566 5.8054H130.431V4.18182H128.156V17.6818ZM130.425 9.09091C130.425 7.18608 131.243 5.95241 132.732 5.95241C134.273 5.95241 135.066 7.26278 135.066 9.09091C135.066 10.9318 134.26 12.2741 132.732 12.2741C131.256 12.2741 130.425 10.9957 130.425 9.09091ZM143.688 14.1918C146.565 14.1918 148.393 12.1655 148.393 9.12926C148.393 6.08665 146.565 4.05398 143.688 4.05398C140.812 4.05398 138.984 6.08665 138.984 9.12926C138.984 12.1655 140.812 14.1918 143.688 14.1918ZM143.701 12.3381C142.11 12.3381 141.33 10.919 141.33 9.12287C141.33 7.3267 142.11 5.88849 143.701 5.88849C145.267 5.88849 146.047 7.3267 146.047 9.12287C146.047 10.919 145.267 12.3381 143.701 12.3381ZM158.117 6.77699C157.797 5.11506 156.468 4.05398 154.167 4.05398C151.801 4.05398 150.191 5.21733 150.197 7.03267C150.191 8.46449 151.073 9.41051 152.958 9.80043L154.633 10.152C155.534 10.3501 155.956 10.7145 155.956 11.2706C155.956 11.9418 155.228 12.4467 154.128 12.4467C153.067 12.4467 152.377 11.9865 152.179 11.1044L149.922 11.3217C150.21 13.1243 151.725 14.1918 154.135 14.1918C156.589 14.1918 158.321 12.9197 158.328 11.0597C158.321 9.6598 157.42 8.80327 155.566 8.40057L153.892 8.04261C152.895 7.81889 152.498 7.47372 152.505 6.90483C152.498 6.24006 153.233 5.77983 154.199 5.77983C155.266 5.77983 155.828 6.36151 156.007 7.0071L158.117 6.77699ZM165.138 4.18182H163.202V1.82955H160.888V4.18182H159.494V5.97159H160.888V11.4304C160.875 13.2777 162.217 14.1854 163.956 14.1342C164.614 14.1151 165.068 13.9872 165.317 13.9041L164.928 12.0952C164.8 12.1271 164.538 12.1847 164.25 12.1847C163.668 12.1847 163.202 11.9801 163.202 11.0469V5.97159H165.138V4.18182ZM174.693 6.77699C174.373 5.11506 173.044 4.05398 170.743 4.05398C168.378 4.05398 166.767 5.21733 166.773 7.03267C166.767 8.46449 167.649 9.41051 169.535 9.80043L171.209 10.152C172.111 10.3501 172.532 10.7145 172.532 11.2706C172.532 11.9418 171.804 12.4467 170.704 12.4467C169.643 12.4467 168.953 11.9865 168.755 11.1044L166.498 11.3217C166.786 13.1243 168.301 14.1918 170.711 14.1918C173.165 14.1918 174.898 12.9197 174.904 11.0597C174.898 9.6598 173.996 8.80327 172.143 8.40057L170.468 8.04261C169.471 7.81889 169.074 7.47372 169.081 6.90483C169.074 6.24006 169.809 5.77983 170.775 5.77983C171.842 5.77983 172.405 6.36151 172.584 7.0071L174.693 6.77699Z" fill="#FF57B2"/>
</svg>
